<svg id="visual" viewBox="0 0 900 600" width="900" height="600" xmlns="http://www.w3.org/2000/svg" xmlns:xlink="http://www.w3.org/1999/xlink" version="1.1"><rect x="0" y="0" width="900" height="600" fill="#001220"></rect><defs><linearGradient id="grad1_0" x1="33.3%" y1="0%" x2="100%" y2="100%"><stop offset="20%" stop-color="#001220" stop-opacity="1"></stop><stop offset="80%" stop-color="#001220" stop-opacity="1"></stop></linearGradient></defs><defs><linearGradient id="grad2_0" x1="0%" y1="0%" x2="66.7%" y2="100%"><stop offset="20%" stop-color="#001220" stop-opacity="1"></stop><stop offset="80%" stop-color="#001220" stop-opacity="1"></stop></linearGradient></defs><g transform="translate(900, 0)"><path d="M0 351.5C-32.3 351.8 -64.6 352 -91 339.6C-117.4 327.1 -138 302.1 -166 287.5C-194 272.9 -229.5 268.8 -246.1 246.1C-262.7 223.3 -260.3 182 -261.5 151C-262.7 120 -267.4 99.3 -283 75.8C-298.6 52.4 -325.1 26.2 -351.5 0L0 0Z" fill="#FBAE3C"></path></g><g transform="translate(0, 600)"><path d="M0 -351.5C35.4 -357.5 70.8 -363.5 91 -339.6C111.2 -315.6 116.3 -261.7 140.5 -243.4C164.7 -225 208.1 -242.2 230.5 -230.5C252.9 -218.8 254.4 -178.2 255.5 -147.5C256.6 -116.8 257.4 -96.2 273.4 -73.2C289.3 -50.3 320.4 -25.2 351.5 0L0 0Z" fill="#FBAE3C"></path></g></svg>