<svg id="visual" viewBox="0 0 900 600" width="900" height="600" xmlns="http://www.w3.org/2000/svg" xmlns:xlink="http://www.w3.org/1999/xlink" version="1.1"><rect x="0" y="0" width="900" height="600" fill="#252020"></rect><path d="M0 281L300 283L600 358L900 282L900 601L600 601L300 601L0 601Z" fill="#4d8007"></path><path d="M0 389L300 364L600 380L900 411L900 601L600 601L300 601L0 601Z" fill="#60920d"></path><path d="M0 426L300 399L600 428L900 497L900 601L600 601L300 601L0 601Z" fill="#73a413"></path><path d="M0 427L300 409L600 427L900 510L900 601L600 601L300 601L0 601Z" fill="#88b718"></path><path d="M0 539L300 532L600 540L900 512L900 601L600 601L300 601L0 601Z" fill="#9eca1d"></path><path d="M0 509L300 559L600 544L900 530L900 601L600 601L300 601L0 601Z" fill="#b4dd23"></path><path d="M0 570L300 538L600 529L900 574L900 601L600 601L300 601L0 601Z" fill="#ccf028"></path></svg>