<!DOCTYPE svg PUBLIC "-//W3C//DTD SVG 1.1//EN" "http://www.w3.org/Graphics/SVG/1.1/DTD/svg11.dtd">
<!-- Uploaded to: SVG Repo, www.svgrepo.com, Transformed by: SVG Repo Mixer Tools -->
<svg width="256px" height="256px" viewBox="-6.4 -6.4 76.80 76.80" version="1.1" xmlns="http://www.w3.org/2000/svg" xmlns:xlink="http://www.w3.org/1999/xlink" fill="#000000" transform="matrix(1, 0, 0, 1, 0, 0)rotate(-45)">
<g id="SVGRepo_bgCarrier" stroke-width="0">
<path transform="translate(-6.4, -6.4), scale(2.4)" d="M16,28.620621380706627C18.590466466508296,28.564644546299103,20.90773051576915,27.1576454021973,22.925578318448316,25.532240786319417C24.859778624205493,23.974215398658405,26.09769335043179,21.870457059447958,27.164406757174504,19.627535652161747C28.394085520881056,17.041955677476096,29.918599276022828,14.435940767440659,29.553422566739073,11.596226056698924C29.150100720303882,8.459884249106874,27.70220836818447,5.270655176315453,25.089159938888795,3.4898445878425886C22.50298484277056,1.7273483619101981,19.09685416667701,1.9076021817268713,16,2.359474779417118C13.244297949956835,2.7615687033778635,10.976586049077163,4.352591454473699,8.653248930306955,5.888064653472236C6.20663738946216,7.5050088407696,3.070467244031792,8.71537317980278,2.163143029136105,11.504132636208729C1.2557549783644788,14.293088299108186,2.8654107242146747,17.20704272009609,4.105975601805657,19.86460279444808C5.208608373192034,22.22668226553452,6.7542295461813415,24.29090675137174,8.853494157977654,25.836321435501176C10.963991742654386,27.390005492218652,13.379899105784364,28.677238579108042,16,28.620621380706627" fill="#6cd26a" strokewidth="0"/>
</g>
<g id="SVGRepo_tracerCarrier" stroke-linecap="round" stroke-linejoin="round"/>
<g id="SVGRepo_iconCarrier"> <title>con-drill</title> <desc>Created with Sketch.</desc> <defs> </defs> <g id="General" stroke-width="1.6640000000000001" fill="none" fill-rule="evenodd"> <g id="SLICES-64px" transform="translate(-450.000000, -300.000000)"> </g> <g id="ICONS" transform="translate(-445.000000, -295.000000)"> <g id="con-drill" transform="translate(452.000000, 306.000000)"> <path d="M4,46 L20,46 C21.104,46 22,45.104 22,44 L22,36 C22,34.896 21.104,34 20,34 L13.375,34 L2,34 L2,44 C2,45.104 2.896,46 4,46" id="Fill-680" fill="#b8453d"> </path> <path d="M40,4 L34,4 L34,12 L40,12 C41.104,12 42,11.104 42,10 L42,6 C42,4.896 41.104,4 40,4" id="Fill-681" fill="#E9EFFA"> </path> <path d="M30,16 C32.209,16 34,14.209 34,12 L34,4 C34,1.791 32.209,0 30,0 L4,0 C1.791,0 0,1.791 0,4 L0,12 C0,14.209 1.791,16 4,16 L30,16 Z" id="Fill-682" fill="#f1f500"> </path> <path d="M12.71,22 L18,22 C16.354,20.354 17.87,17.918 19,16 L14,16 L12.71,22 Z" id="Fill-683" fill="#F16963"> </path> <path d="M13.375,34 C11.926,34 10.75,32.824 10.75,31.375 C10.75,31.12 10.786,30.874 10.854,30.641 L14,16 L6,16 L2,34 L13.375,34 Z" id="Fill-684" fill="#f1f500"> </path> <path d="M12.71,22 L18,22 C16.354,20.354 17.87,17.918 19,16" id="Stroke-685" stroke="#414547" stroke-width="1.6640000000000001" stroke-linecap="round" stroke-linejoin="round"> </path> <path d="M42,8 L54,8" id="Stroke-686" stroke="#414547" stroke-width="1.6640000000000001" stroke-linecap="round" stroke-linejoin="round"> </path> <path d="M34,4 L40,4 C41.104,4 42,4.896 42,6 L42,10 C42,11.104 41.104,12 40,12 L34,12" id="Stroke-687" stroke="#414547" stroke-width="1.6640000000000001" stroke-linecap="round" stroke-linejoin="round"> </path> <path d="M2,34 L6,16" id="Stroke-688" stroke="#414547" stroke-width="1.6640000000000001" stroke-linecap="round" stroke-linejoin="round"> </path> <path d="M6,8 L14,8" id="Stroke-689" stroke="#414547" stroke-width="1.6640000000000001" stroke-linecap="round" stroke-linejoin="round"> </path> <path d="M6,4 L14,4" id="Stroke-690" stroke="#414547" stroke-width="1.6640000000000001" stroke-linecap="round" stroke-linejoin="round"> </path> <path d="M2,34 L2,44 C2,45.104 2.896,46 4,46 L20,46 C21.104,46 22,45.104 22,44 L22,36 C22,34.896 21.104,34 20,34 L13.375,34" id="Stroke-691" stroke="#414547" stroke-width="1.6640000000000001" stroke-linecap="round" stroke-linejoin="round"> </path> <path d="M13.375,34 C11.926,34 10.75,32.824 10.75,31.375 C10.75,31.12 10.786,30.874 10.854,30.641 L14,16" id="Stroke-692" stroke="#414547" stroke-width="1.6640000000000001" stroke-linecap="round" stroke-linejoin="round"> </path> <path d="M2,34 L14,34" id="Stroke-693" stroke="#414547" stroke-width="1.6640000000000001" stroke-linecap="round" stroke-linejoin="round"> </path> <path d="M30,16 C32.209,16 34,14.209 34,12 L34,4 C34,1.791 32.209,0 30,0 L4,0 C1.791,0 0,1.791 0,4 L0,12 C0,14.209 1.791,16 4,16 L30,16 Z" id="Stroke-694" stroke="#414547" stroke-width="1.6640000000000001" stroke-linecap="round" stroke-linejoin="round"> </path> </g> </g> </g> </g>
</svg>